<?xml version="1.0" encoding="UTF-8"?>
    <svg xmlns="http://www.w3.org/2000/svg" id="Layer_1" data-name="Layer 1" viewBox="0 0 120.09 40">
    <defs><style>.cls-1{fill:#002c49;}.cls-2{fill:#0055a6;}.cls-3{fill:#ffc10e;}</style></defs>
    <g id="Layer_1-2" data-name="Layer 1-2">
        <path class="cls-1" d="M11.16,28.89a5.33,5.33,0,0,0,.45-2.61,3.85,3.85,0,0,0-.9-2.93,4.72,4.72,0,0,0-3.2-.82H1.32V35.09H3.88V30.93H7.14a1.57,1.57,0,0,1,1.77,1.34,1.42,1.42,0,0,1,0,.46v2.36h2.56V32.26c0-1.42-.59-2.25-1.76-2.46a2.32,2.32,0,0,0,1.45-.91M3.89,24.72H7.3a1.94,1.94,0,0,1,1.4.35A2.72,2.72,0,0,1,9,26.7a2.51,2.51,0,0,1-.37,1.65,2.09,2.09,0,0,1-1.51.39H3.88Z"></path>
        <path class="cls-1" d="M17.29,26.13a5.3,5.3,0,0,0-2.93.55,2.54,2.54,0,0,0-.77,2.16V29h2.34v-.11c0-.74.48-1.1,1.47-1.1a2,2,0,0,1,1.37.32,1.82,1.82,0,0,1,.32,1.26v1a3.2,3.2,0,0,0-2.53-.77c-2.22,0-3.32.95-3.32,2.8s1.09,2.77,3.24,2.77a3.08,3.08,0,0,0,2.68-1l-.08.95h2.3V29.33a3.09,3.09,0,0,0-.87-2.53,5.54,5.54,0,0,0-3.22-.66m1.81,6.28c0,.79-.58,1.16-1.78,1.16a2.67,2.67,0,0,1-1.45-.24,1.2,1.2,0,0,1-.32-1c0-.74.54-1.1,1.64-1.1,1.29,0,1.9.39,1.9,1.19"></path>
        <path class="cls-1" d="M29.27,27.31a2.82,2.82,0,0,0-2.57-1.16,3.21,3.21,0,0,0-2.7,1,5.83,5.83,0,0,0-.73,3.42A6.73,6.73,0,0,0,24,34.2a3.12,3.12,0,0,0,2.69,1,2.76,2.76,0,0,0,2.58-1.11V38.8h2.29V26.23H29.25Zm-.4,1.17a4.73,4.73,0,0,1,.36,2.32,4,4,0,0,1-.37,2.06c-.24.34-.72.48-1.44.48a1.91,1.91,0,0,1-1.52-.46,5.5,5.5,0,0,1-.32-2.38,3.92,3.92,0,0,1,.35-2.05c.22-.32.69-.46,1.4-.46a1.94,1.94,0,0,1,1.55.49"></path>
        <path class="cls-1" d="M43.83,26.14a2.66,2.66,0,0,0-2.65,1.41c-.28-.95-1.17-1.41-2.65-1.41A2.8,2.8,0,0,0,36,27.3V26.23H33.72v8.86H36V30c0-1.33.59-2,1.8-2a1.46,1.46,0,0,1,1.12.3,2.31,2.31,0,0,1,.26,1.34V35.1h2.29V29.93c0-1.31.58-1.94,1.78-1.94,1,0,1.4.56,1.4,1.72v5.38H47V29.26c0-2.07-1-3.12-3.11-3.12"></path><rect class="cls-1" x="49.21" y="26.23" width="2.29" height="8.86"></rect><rect class="cls-1" x="49.21" y="22.53" width="2.29" height="1.95"></rect>
        <path class="cls-1" d="M57.78,30l-.42,1.83c0,.15-.1.45-.19.92l-.12.58-.29-1c-.06-.24-.11-.39-.13-.48L55,26.23H52.53l2.91,8.86h1c-.23,1.38-.75,2.07-1.54,2.07h-.56V38.9h.84a3.34,3.34,0,0,0,2.34-.7,5.57,5.57,0,0,0,1.22-2.68L61,26.36v-.14H58.6Z"></path>
        <path class="cls-1" d="M65.82,26.13a5.26,5.26,0,0,0-2.92.55,2.5,2.5,0,0,0-.77,2.16V29h2.35v-.11c0-.74.48-1.1,1.47-1.1a2,2,0,0,1,1.37.32,1.88,1.88,0,0,1,.31,1.26v1a3.2,3.2,0,0,0-2.53-.77c-2.21,0-3.31.95-3.31,2.8S62.88,35.2,65,35.2a3,3,0,0,0,2.67-1l-.08.95h2.3V29.33A3.09,3.09,0,0,0,69,26.8a5.52,5.52,0,0,0-3.21-.66m1.8,6.27c0,.79-.58,1.17-1.78,1.17a2.93,2.93,0,0,1-1.46-.24c-.22-.16-.31-.5-.31-1,0-.74.53-1.1,1.64-1.1,1.28,0,1.9.39,1.9,1.19"></path>
        <path class="cls-1" d="M76.28,31.55V32c0,.92-.29,1.35-.89,1.35s-.8-.35-.8-1.09V28h3.32V26.23H74.6V24.3H72.31v1.93H71.18V28H72.3v4.53c0,1.76,1,2.65,2.88,2.65s2.93-.7,3-2.08V31.56Z"></path>
        <path class="cls-1" d="M14.07,11.32a1.7,1.7,0,0,1-1.41,1.95,1.68,1.68,0,0,1-.59,0h-7a1.71,1.71,0,0,1-1.95-1.43,2.18,2.18,0,0,1,0-.51V7.11L.94,9.32h0v2.16A3.57,3.57,0,0,0,2,14.23a3.93,3.93,0,0,0,2.81,1h7.44a4.25,4.25,0,0,0,3-1,3.53,3.53,0,0,0,1.09-2.72v-6l-2.21.61Z"></path>
        <path class="cls-1" d="M69.8,8.65a3.11,3.11,0,0,0-1-2.38,5.45,5.45,0,0,0-6.36-.15A3.16,3.16,0,0,0,61.3,8.65a3.75,3.75,0,0,0,.7,2.53,3.65,3.65,0,0,0,2.88,1h2.7a1.05,1.05,0,0,1-.58,1,5.72,5.72,0,0,1-1.43.12H59.86a2.17,2.17,0,0,1-2.45-1.85s0,0,0-.07a4.76,4.76,0,0,0-1.22-2.79,4.37,4.37,0,0,0-3.12-1,4,4,0,0,0-4.34,3.63s0,.11,0,.16A2.07,2.07,0,0,1,46.5,13.3l-.17,0H45.25a1.7,1.7,0,0,1-1.94-1.42,1.74,1.74,0,0,1,0-.51V5.52l-2.14.63h-.09v5.06a1.75,1.75,0,0,1-2,2H21c-.64,0-.91-.28-.91-.88V1.47l-2.22.7V12.44a2.92,2.92,0,0,0,.74,2.05,2.83,2.83,0,0,0,2.13.77H39.25a4.1,4.1,0,0,0,3-1.06,4,4,0,0,0,2.92,1.06h1.38A3.44,3.44,0,0,0,49,14.31a3.55,3.55,0,0,0,1.48,1.74,4.9,4.9,0,0,0,2.56.67A4.82,4.82,0,0,0,55.73,16a3.75,3.75,0,0,0,1.45-1.9,3.5,3.5,0,0,0,2.53,1.16h6.1a4.87,4.87,0,0,0,2.82-.66,3.15,3.15,0,0,0,1.17-2.76ZM65.47,7.17c1.41,0,2.1.5,2.1,1.53v1.5h-2.3c-1,0-1.37-.13-1.49-.23s-.27-.41-.27-1.27.63-1.52,2-1.52M53.06,14.81c-1.41,0-2.1-.87-2.1-2.66s.69-2.66,2.1-2.66,2.09.87,2.09,2.66-.68,2.66-2.09,2.66"></path>
        <path class="cls-1" d="M75.71,6.18v8.37a2.81,2.81,0,0,1-.69,2,2.51,2.51,0,0,1-1.92.74,6.22,6.22,0,0,1-3.1-.76l-.33-.19,1.1,2.34h0a4.35,4.35,0,0,0,2.31.59A4.81,4.81,0,0,0,76.64,18a4.75,4.75,0,0,0,1.3-3.45v-9Z"></path><rect class="cls-1" x="35.76" y="16.81" width="2.53" height="2.53"></rect><rect class="cls-1" x="39.18" y="16.81" width="2.53" height="2.53"></rect><rect class="cls-1" x="62.33" y="1.13" width="2.53" height="2.53"></rect><rect class="cls-1" x="65.75" y="1.13" width="2.53" height="2.53"></rect><rect class="cls-1" x="5.42" y="2.23" width="2.53" height="2.53"></rect><rect class="cls-1" x="8.84" y="2.23" width="2.53" height="2.53"></rect><path class="cls-2" d="M91.24,29V10.64A3.73,3.73,0,0,1,92,7.87a4.22,4.22,0,0,1,2.76-1h18.6V22.32h5.83V1.06H94.75a9.92,9.92,0,0,0-7,2.78,9.2,9.2,0,0,0-2.38,7v24H107.2V29Z"></path><rect class="cls-3" x="110.01" y="25.59" width="9.11" height="9"></rect>
    </g>
</svg>